<?xml version="1.0" encoding="UTF-8" standalone="no"?>
<!DOCTYPE svg PUBLIC "-//W3C//DTD SVG 1.1//EN"
 "http://www.w3.org/Graphics/SVG/1.1/DTD/svg11.dtd">
<!-- Generated by graphviz version 2.38.0 (20140413.2041)
 -->
<!-- Title: G Pages: 1 -->
<svg width="580pt" height="124pt"
 viewBox="0.00 0.00 579.96 123.98" xmlns="http://www.w3.org/2000/svg" xmlns:xlink="http://www.w3.org/1999/xlink">
<g id="graph0" class="graph" transform="scale(1 1) rotate(0) translate(7.992 115.992)">
<title>G</title>
<polygon fill="#000000" stroke="none" points="-7.992,7.992 -7.992,-115.992 571.968,-115.992 571.968,7.992 -7.992,7.992"/>
<!-- src/index -->
<g id="node1" class="node"><title>src/index</title>
<ellipse fill="none" stroke="#c6c5fe" cx="300.336" cy="-90" rx="48.1917" ry="18"/>
<text text-anchor="middle" x="300.336" y="-86.3" font-family="Arial" font-size="14.00" fill="#c6c5fe">src/index</text>
</g>
<!-- node_modules/fun&#45;object/src/index -->
<g id="node2" class="node"><title>node_modules/fun&#45;object/src/index</title>
<ellipse fill="none" stroke="#cfffac" cx="155.336" cy="-18" rx="155.173" ry="18"/>
<text text-anchor="middle" x="155.336" y="-14.3" font-family="Arial" font-size="14.00" fill="#cfffac">node_modules/fun&#45;object/src/index</text>
</g>
<!-- src/index&#45;&gt;node_modules/fun&#45;object/src/index -->
<g id="edge1" class="edge"><title>src/index&#45;&gt;node_modules/fun&#45;object/src/index</title>
<path fill="none" stroke="#757575" d="M272.035,-75.3371C251.225,-65.2914 222.561,-51.4533 198.849,-40.0061"/>
<polygon fill="#757575" stroke="#757575" points="200.225,-36.7839 189.698,-35.5883 197.182,-43.0878 200.225,-36.7839"/>
</g>
<!-- node_modules/xml/lib/xml -->
<g id="node3" class="node"><title>node_modules/xml/lib/xml</title>
<ellipse fill="none" stroke="#cfffac" cx="446.336" cy="-18" rx="117.779" ry="18"/>
<text text-anchor="middle" x="446.336" y="-14.3" font-family="Arial" font-size="14.00" fill="#cfffac">node_modules/xml/lib/xml</text>
</g>
<!-- src/index&#45;&gt;node_modules/xml/lib/xml -->
<g id="edge2" class="edge"><title>src/index&#45;&gt;node_modules/xml/lib/xml</title>
<path fill="none" stroke="#757575" d="M328.833,-75.3371C349.932,-65.2211 379.052,-51.2596 403.024,-39.7663"/>
<polygon fill="#757575" stroke="#757575" points="404.763,-42.8139 412.267,-35.3346 401.737,-36.5019 404.763,-42.8139"/>
</g>
</g>
</svg>
